t<svg width="153" height="184" viewBox="0 0 153 184" fill="none" xmlns="http://www.w3.org/2000/svg">
<path id="Union" fill-rule="evenodd" clip-rule="evenodd" d="M-29 4C-27.8954 4 -27 3.10457 -27 2C-27 0.895431 -27.8954 0 -29 0C-30.1046 0 -31 0.895431 -31 2C-31 3.10457 -30.1046 4 -29 4ZM-29 84C-27.8954 84 -27 83.1046 -27 82C-27 80.8954 -27.8954 80 -29 80C-30.1046 80 -31 80.8954 -31 82C-31 83.1046 -30.1046 84 -29 84ZM-27 42C-27 43.1046 -27.8954 44 -29 44C-30.1046 44 -31 43.1046 -31 42C-31 40.8954 -30.1046 40 -29 40C-27.8954 40 -27 40.8954 -27 42ZM-29 124C-27.8954 124 -27 123.105 -27 122C-27 120.895 -27.8954 120 -29 120C-30.1046 120 -31 120.895 -31 122C-31 123.105 -30.1046 124 -29 124ZM-27 182C-27 183.105 -27.8954 184 -29 184C-30.1046 184 -31 183.105 -31 182C-31 180.895 -30.1046 180 -29 180C-27.8954 180 -27 180.895 -27 182ZM-29 24C-27.8954 24 -27 23.1046 -27 22C-27 20.8954 -27.8954 20 -29 20C-30.1046 20 -31 20.8954 -31 22C-31 23.1046 -30.1046 24 -29 24ZM-27 102C-27 103.105 -27.8954 104 -29 104C-30.1046 104 -31 103.105 -31 102C-31 100.895 -30.1046 100 -29 100C-27.8954 100 -27 100.895 -27 102ZM-29 164C-27.8954 164 -27 163.105 -27 162C-27 160.895 -27.8954 160 -29 160C-30.1046 160 -31 160.895 -31 162C-31 163.105 -30.1046 164 -29 164ZM-27 62C-27 63.1046 -27.8954 64 -29 64C-30.1046 64 -31 63.1046 -31 62C-31 60.8954 -30.1046 60 -29 60C-27.8954 60 -27 60.8954 -27 62ZM-29 144C-27.8954 144 -27 143.105 -27 142C-27 140.895 -27.8954 140 -29 140C-30.1046 140 -31 140.895 -31 142C-31 143.105 -30.1046 144 -29 144ZM53 2C53 3.10457 52.1046 4 51 4C49.8954 4 49 3.10457 49 2C49 0.895431 49.8954 0 51 0C52.1046 0 53 0.895431 53 2ZM51 84C52.1046 84 53 83.1046 53 82C53 80.8954 52.1046 80 51 80C49.8954 80 49 80.8954 49 82C49 83.1046 49.8954 84 51 84ZM53 42C53 43.1046 52.1046 44 51 44C49.8954 44 49 43.1046 49 42C49 40.8954 49.8954 40 51 40C52.1046 40 53 40.8954 53 42ZM51 124C52.1046 124 53 123.105 53 122C53 120.895 52.1046 120 51 120C49.8954 120 49 120.895 49 122C49 123.105 49.8954 124 51 124ZM53 182C53 183.105 52.1046 184 51 184C49.8954 184 49 183.105 49 182C49 180.895 49.8954 180 51 180C52.1046 180 53 180.895 53 182ZM51 24C52.1046 24 53 23.1046 53 22C53 20.8954 52.1046 20 51 20C49.8954 20 49 20.8954 49 22C49 23.1046 49.8954 24 51 24ZM53 102C53 103.105 52.1046 104 51 104C49.8954 104 49 103.105 49 102C49 100.895 49.8954 100 51 100C52.1046 100 53 100.895 53 102ZM51 164C52.1046 164 53 163.105 53 162C53 160.895 52.1046 160 51 160C49.8954 160 49 160.895 49 162C49 163.105 49.8954 164 51 164ZM53 62C53 63.1046 52.1046 64 51 64C49.8954 64 49 63.1046 49 62C49 60.8954 49.8954 60 51 60C52.1046 60 53 60.8954 53 62ZM51 144C52.1046 144 53 143.105 53 142C53 140.895 52.1046 140 51 140C49.8954 140 49 140.895 49 142C49 143.105 49.8954 144 51 144ZM13 2C13 3.10457 12.1046 4 11 4C9.89543 4 9 3.10457 9 2C9 0.895431 9.89543 0 11 0C12.1046 0 13 0.895431 13 2ZM11 84C12.1046 84 13 83.1046 13 82C13 80.8954 12.1046 80 11 80C9.89543 80 9 80.8954 9 82C9 83.1046 9.89543 84 11 84ZM13 42C13 43.1046 12.1046 44 11 44C9.89543 44 9 43.1046 9 42C9 40.8954 9.89543 40 11 40C12.1046 40 13 40.8954 13 42ZM11 124C12.1046 124 13 123.105 13 122C13 120.895 12.1046 120 11 120C9.89543 120 9 120.895 9 122C9 123.105 9.89543 124 11 124ZM13 182C13 183.105 12.1046 184 11 184C9.89543 184 9 183.105 9 182C9 180.895 9.89543 180 11 180C12.1046 180 13 180.895 13 182ZM11 24C12.1046 24 13 23.1046 13 22C13 20.8954 12.1046 20 11 20C9.89543 20 9 20.8954 9 22C9 23.1046 9.89543 24 11 24ZM13 102C13 103.105 12.1046 104 11 104C9.89543 104 9 103.105 9 102C9 100.895 9.89543 100 11 100C12.1046 100 13 100.895 13 102ZM11 164C12.1046 164 13 163.105 13 162C13 160.895 12.1046 160 11 160C9.89543 160 9 160.895 9 162C9 163.105 9.89543 164 11 164ZM13 62C13 63.1046 12.1046 64 11 64C9.89543 64 9 63.1046 9 62C9 60.8954 9.89543 60 11 60C12.1046 60 13 60.8954 13 62ZM11 144C12.1046 144 13 143.105 13 142C13 140.895 12.1046 140 11 140C9.89543 140 9 140.895 9 142C9 143.105 9.89543 144 11 144ZM93 2C93 3.10457 92.1046 4 91 4C89.8954 4 89 3.10457 89 2C89 0.895431 89.8954 0 91 0C92.1046 0 93 0.895431 93 2ZM91 84C92.1046 84 93 83.1046 93 82C93 80.8954 92.1046 80 91 80C89.8954 80 89 80.8954 89 82C89 83.1046 89.8954 84 91 84ZM93 42C93 43.1046 92.1046 44 91 44C89.8954 44 89 43.1046 89 42C89 40.8954 89.8954 40 91 40C92.1046 40 93 40.8954 93 42ZM91 124C92.1046 124 93 123.105 93 122C93 120.895 92.1046 120 91 120C89.8954 120 89 120.895 89 122C89 123.105 89.8954 124 91 124ZM93 182C93 183.105 92.1046 184 91 184C89.8954 184 89 183.105 89 182C89 180.895 89.8954 180 91 180C92.1046 180 93 180.895 93 182ZM91 24C92.1046 24 93 23.1046 93 22C93 20.8954 92.1046 20 91 20C89.8954 20 89 20.8954 89 22C89 23.1046 89.8954 24 91 24ZM93 102C93 103.105 92.1046 104 91 104C89.8954 104 89 103.105 89 102C89 100.895 89.8954 100 91 100C92.1046 100 93 100.895 93 102ZM91 164C92.1046 164 93 163.105 93 162C93 160.895 92.1046 160 91 160C89.8954 160 89 160.895 89 162C89 163.105 89.8954 164 91 164ZM93 62C93 63.1046 92.1046 64 91 64C89.8954 64 89 63.1046 89 62C89 60.8954 89.8954 60 91 60C92.1046 60 93 60.8954 93 62ZM91 144C92.1046 144 93 143.105 93 142C93 140.895 92.1046 140 91 140C89.8954 140 89 140.895 89 142C89 143.105 89.8954 144 91 144ZM133 2C133 3.10457 132.105 4 131 4C129.895 4 129 3.10457 129 2C129 0.895431 129.895 0 131 0C132.105 0 133 0.895431 133 2ZM131 84C132.105 84 133 83.1046 133 82C133 80.8954 132.105 80 131 80C129.895 80 129 80.8954 129 82C129 83.1046 129.895 84 131 84ZM133 42C133 43.1046 132.105 44 131 44C129.895 44 129 43.1046 129 42C129 40.8954 129.895 40 131 40C132.105 40 133 40.8954 133 42ZM131 124C132.105 124 133 123.105 133 122C133 120.895 132.105 120 131 120C129.895 120 129 120.895 129 122C129 123.105 129.895 124 131 124ZM133 182C133 183.105 132.105 184 131 184C129.895 184 129 183.105 129 182C129 180.895 129.895 180 131 180C132.105 180 133 180.895 133 182ZM131 24C132.105 24 133 23.1046 133 22C133 20.8954 132.105 20 131 20C129.895 20 129 20.8954 129 22C129 23.1046 129.895 24 131 24ZM133 102C133 103.105 132.105 104 131 104C129.895 104 129 103.105 129 102C129 100.895 129.895 100 131 100C132.105 100 133 100.895 133 102ZM131 164C132.105 164 133 163.105 133 162C133 160.895 132.105 160 131 160C129.895 160 129 160.895 129 162C129 163.105 129.895 164 131 164ZM133 62C133 63.1046 132.105 64 131 64C129.895 64 129 63.1046 129 62C129 60.8954 129.895 60 131 60C132.105 60 133 60.8954 133 62ZM131 144C132.105 144 133 143.105 133 142C133 140.895 132.105 140 131 140C129.895 140 129 140.895 129 142C129 143.105 129.895 144 131 144ZM-7 2C-7 3.10457 -7.89543 4 -9 4C-10.1046 4 -11 3.10457 -11 2C-11 0.895431 -10.1046 0 -9 0C-7.89543 0 -7 0.895431 -7 2ZM-9 84C-7.89543 84 -7 83.1046 -7 82C-7 80.8954 -7.89543 80 -9 80C-10.1046 80 -11 80.8954 -11 82C-11 83.1046 -10.1046 84 -9 84ZM-7 42C-7 43.1046 -7.89543 44 -9 44C-10.1046 44 -11 43.1046 -11 42C-11 40.8954 -10.1046 40 -9 40C-7.89543 40 -7 40.8954 -7 42ZM-9 124C-7.89543 124 -7 123.105 -7 122C-7 120.895 -7.89543 120 -9 120C-10.1046 120 -11 120.895 -11 122C-11 123.105 -10.1046 124 -9 124ZM-7 182C-7 183.105 -7.89543 184 -9 184C-10.1046 184 -11 183.105 -11 182C-11 180.895 -10.1046 180 -9 180C-7.89543 180 -7 180.895 -7 182ZM-9 24C-7.89543 24 -7 23.1046 -7 22C-7 20.8954 -7.89543 20 -9 20C-10.1046 20 -11 20.8954 -11 22C-11 23.1046 -10.1046 24 -9 24ZM-7 102C-7 103.105 -7.89543 104 -9 104C-10.1046 104 -11 103.105 -11 102C-11 100.895 -10.1046 100 -9 100C-7.89543 100 -7 100.895 -7 102ZM-9 164C-7.89543 164 -7 163.105 -7 162C-7 160.895 -7.89543 160 -9 160C-10.1046 160 -11 160.895 -11 162C-11 163.105 -10.1046 164 -9 164ZM-7 62C-7 63.1046 -7.89543 64 -9 64C-10.1046 64 -11 63.1046 -11 62C-11 60.8954 -10.1046 60 -9 60C-7.89543 60 -7 60.8954 -7 62ZM-9 144C-7.89543 144 -7 143.105 -7 142C-7 140.895 -7.89543 140 -9 140C-10.1046 140 -11 140.895 -11 142C-11 143.105 -10.1046 144 -9 144ZM73 2C73 3.10457 72.1046 4 71 4C69.8954 4 69 3.10457 69 2C69 0.895431 69.8954 0 71 0C72.1046 0 73 0.895431 73 2ZM71 84C72.1046 84 73 83.1046 73 82C73 80.8954 72.1046 80 71 80C69.8954 80 69 80.8954 69 82C69 83.1046 69.8954 84 71 84ZM73 42C73 43.1046 72.1046 44 71 44C69.8954 44 69 43.1046 69 42C69 40.8954 69.8954 40 71 40C72.1046 40 73 40.8954 73 42ZM71 124C72.1046 124 73 123.105 73 122C73 120.895 72.1046 120 71 120C69.8954 120 69 120.895 69 122C69 123.105 69.8954 124 71 124ZM73 182C73 183.105 72.1046 184 71 184C69.8954 184 69 183.105 69 182C69 180.895 69.8954 180 71 180C72.1046 180 73 180.895 73 182ZM71 24C72.1046 24 73 23.1046 73 22C73 20.8954 72.1046 20 71 20C69.8954 20 69 20.8954 69 22C69 23.1046 69.8954 24 71 24ZM73 102C73 103.105 72.1046 104 71 104C69.8954 104 69 103.105 69 102C69 100.895 69.8954 100 71 100C72.1046 100 73 100.895 73 102ZM71 164C72.1046 164 73 163.105 73 162C73 160.895 72.1046 160 71 160C69.8954 160 69 160.895 69 162C69 163.105 69.8954 164 71 164ZM73 62C73 63.1046 72.1046 64 71 64C69.8954 64 69 63.1046 69 62C69 60.8954 69.8954 60 71 60C72.1046 60 73 60.8954 73 62ZM71 144C72.1046 144 73 143.105 73 142C73 140.895 72.1046 140 71 140C69.8954 140 69 140.895 69 142C69 143.105 69.8954 144 71 144ZM33 2C33 3.10457 32.1046 4 31 4C29.8954 4 29 3.10457 29 2C29 0.895431 29.8954 0 31 0C32.1046 0 33 0.895431 33 2ZM31 84C32.1046 84 33 83.1046 33 82C33 80.8954 32.1046 80 31 80C29.8954 80 29 80.8954 29 82C29 83.1046 29.8954 84 31 84ZM33 42C33 43.1046 32.1046 44 31 44C29.8954 44 29 43.1046 29 42C29 40.8954 29.8954 40 31 40C32.1046 40 33 40.8954 33 42ZM31 124C32.1046 124 33 123.105 33 122C33 120.895 32.1046 120 31 120C29.8954 120 29 120.895 29 122C29 123.105 29.8954 124 31 124ZM33 182C33 183.105 32.1046 184 31 184C29.8954 184 29 183.105 29 182C29 180.895 29.8954 180 31 180C32.1046 180 33 180.895 33 182ZM31 24C32.1046 24 33 23.1046 33 22C33 20.8954 32.1046 20 31 20C29.8954 20 29 20.8954 29 22C29 23.1046 29.8954 24 31 24ZM33 102C33 103.105 32.1046 104 31 104C29.8954 104 29 103.105 29 102C29 100.895 29.8954 100 31 100C32.1046 100 33 100.895 33 102ZM31 164C32.1046 164 33 163.105 33 162C33 160.895 32.1046 160 31 160C29.8954 160 29 160.895 29 162C29 163.105 29.8954 164 31 164ZM33 62C33 63.1046 32.1046 64 31 64C29.8954 64 29 63.1046 29 62C29 60.8954 29.8954 60 31 60C32.1046 60 33 60.8954 33 62ZM31 144C32.1046 144 33 143.105 33 142C33 140.895 32.1046 140 31 140C29.8954 140 29 140.895 29 142C29 143.105 29.8954 144 31 144ZM113 2C113 3.10457 112.105 4 111 4C109.895 4 109 3.10457 109 2C109 0.895431 109.895 0 111 0C112.105 0 113 0.895431 113 2ZM111 84C112.105 84 113 83.1046 113 82C113 80.8954 112.105 80 111 80C109.895 80 109 80.8954 109 82C109 83.1046 109.895 84 111 84ZM113 42C113 43.1046 112.105 44 111 44C109.895 44 109 43.1046 109 42C109 40.8954 109.895 40 111 40C112.105 40 113 40.8954 113 42ZM111 124C112.105 124 113 123.105 113 122C113 120.895 112.105 120 111 120C109.895 120 109 120.895 109 122C109 123.105 109.895 124 111 124ZM113 182C113 183.105 112.105 184 111 184C109.895 184 109 183.105 109 182C109 180.895 109.895 180 111 180C112.105 180 113 180.895 113 182ZM111 24C112.105 24 113 23.1046 113 22C113 20.8954 112.105 20 111 20C109.895 20 109 20.8954 109 22C109 23.1046 109.895 24 111 24ZM113 102C113 103.105 112.105 104 111 104C109.895 104 109 103.105 109 102C109 100.895 109.895 100 111 100C112.105 100 113 100.895 113 102ZM111 164C112.105 164 113 163.105 113 162C113 160.895 112.105 160 111 160C109.895 160 109 160.895 109 162C109 163.105 109.895 164 111 164ZM113 62C113 63.1046 112.105 64 111 64C109.895 64 109 63.1046 109 62C109 60.8954 109.895 60 111 60C112.105 60 113 60.8954 113 62ZM111 144C112.105 144 113 143.105 113 142C113 140.895 112.105 140 111 140C109.895 140 109 140.895 109 142C109 143.105 109.895 144 111 144ZM153 2C153 3.10457 152.105 4 151 4C149.895 4 149 3.10457 149 2C149 0.895431 149.895 0 151 0C152.105 0 153 0.895431 153 2ZM151 84C152.105 84 153 83.1046 153 82C153 80.8954 152.105 80 151 80C149.895 80 149 80.8954 149 82C149 83.1046 149.895 84 151 84ZM153 42C153 43.1046 152.105 44 151 44C149.895 44 149 43.1046 149 42C149 40.8954 149.895 40 151 40C152.105 40 153 40.8954 153 42ZM151 124C152.105 124 153 123.105 153 122C153 120.895 152.105 120 151 120C149.895 120 149 120.895 149 122C149 123.105 149.895 124 151 124ZM153 182C153 183.105 152.105 184 151 184C149.895 184 149 183.105 149 182C149 180.895 149.895 180 151 180C152.105 180 153 180.895 153 182ZM151 24C152.105 24 153 23.1046 153 22C153 20.8954 152.105 20 151 20C149.895 20 149 20.8954 149 22C149 23.1046 149.895 24 151 24ZM153 102C153 103.105 152.105 104 151 104C149.895 104 149 103.105 149 102C149 100.895 149.895 100 151 100C152.105 100 153 100.895 153 102ZM151 164C152.105 164 153 163.105 153 162C153 160.895 152.105 160 151 160C149.895 160 149 160.895 149 162C149 163.105 149.895 164 151 164ZM153 62C153 63.1046 152.105 64 151 64C149.895 64 149 63.1046 149 62C149 60.8954 149.895 60 151 60C152.105 60 153 60.8954 153 62ZM151 144C152.105 144 153 143.105 153 142C153 140.895 152.105 140 151 140C149.895 140 149 140.895 149 142C149 143.105 149.895 144 151 144Z" fill="white"/>
</svg>
